HIERARCHY
ROOT mixamorig:Hips
{
	OFFSET 0.00 0.00 0.00
	CHANNELS 6 Xposition Yposition Zposition Zrotation Yrotation Xrotation
	JOINT mixamorig:Spine
	{
		OFFSET	0.0000	9.9235	-1.2273
		CHANNELS 3 Zrotation Yrotation Xrotation
		JOINT mixamorig:Spine1
		{
			OFFSET	-0.0001	11.6455	-1.4224
			CHANNELS 3 Zrotation Yrotation Xrotation
			JOINT mixamorig:Spine2
			{
				OFFSET	0.0001	13.3602	-1.6265
				CHANNELS 3 Zrotation Yrotation Xrotation
				JOINT mixamorig:Neck
				{
					OFFSET	0.0000	15.0325	0.7929
					CHANNELS 3 Zrotation Yrotation Xrotation
					JOINT mixamorig:Head
					{
						OFFSET	-0.0000	10.3218	3.1424
						CHANNELS 3 Zrotation Yrotation Xrotation
						JOINT mixamorig:HeadTop_End
						{
							OFFSET	0.0002	18.4747	6.6364
							CHANNELS 3 Zrotation Yrotation Xrotation
							End Site
							{
								OFFSET 0.0000 0.0000 0.0000
							}
						}
						JOINT mixamorig:LeftEye
						{
							OFFSET	2.9479	7.6817	9.1207
							CHANNELS 3 Zrotation Yrotation Xrotation
							End Site
							{
								OFFSET 0.0000 0.0000 0.0000
							}
						}
						JOINT mixamorig:RightEye
						{
							OFFSET	-2.9445	7.6817	9.1205
							CHANNELS 3 Zrotation Yrotation Xrotation
							End Site
							{
								OFFSET 0.0000 0.0000 0.0000
							}
						}
					}
				}
				JOINT mixamorig:LeftShoulder
				{
					OFFSET	6.1059	9.1104	0.7056
					CHANNELS 3 Zrotation Yrotation Xrotation
					JOINT mixamorig:LeftArm
					{
						OFFSET	12.6532	-0.3431	-2.6009
						CHANNELS 3 Zrotation Yrotation Xrotation
						JOINT mixamorig:LeftForeArm
						{
							OFFSET	27.3517	-0.9645	-1.4034
							CHANNELS 3 Zrotation Yrotation Xrotation
							JOINT mixamorig:LeftHand
							{
								OFFSET	27.5619	-0.7072	1.5500
								CHANNELS 3 Zrotation Yrotation Xrotation
								JOINT mixamorig:LeftHandMiddle1
								{
									OFFSET	12.6630	-1.3962	0.9548
									CHANNELS 3 Zrotation Yrotation Xrotation
									JOINT mixamorig:LeftHandMiddle2
									{
										OFFSET	3.6093	-0.1669	0.0778
										CHANNELS 3 Zrotation Yrotation Xrotation
										JOINT mixamorig:LeftHandMiddle3
										{
											OFFSET	3.4004	-0.6274	0.1148
											CHANNELS 3 Zrotation Yrotation Xrotation
											End Site
											{
												OFFSET 3.6205 -0.6493 0.1199
											}
										}
									}
								}
								JOINT mixamorig:LeftHandThumb1
								{
									OFFSET	3.3268	-2.0474	3.5790
									CHANNELS 3 Zrotation Yrotation Xrotation
									JOINT mixamorig:LeftHandThumb2
									{
										OFFSET	3.4890	-1.4806	2.8548
										CHANNELS 3 Zrotation Yrotation Xrotation
										JOINT mixamorig:LeftHandThumb3
										{
											OFFSET	3.4086	-1.7658	2.1133
											CHANNELS 3 Zrotation Yrotation Xrotation
											End Site
											{
												OFFSET 2.7231 -1.1597 1.7903
											}
										}
									}
								}
								JOINT mixamorig:LeftHandIndex1
								{
									OFFSET	11.9722	-1.1061	3.7324
									CHANNELS 3 Zrotation Yrotation Xrotation
									JOINT mixamorig:LeftHandIndex2
									{
										OFFSET	3.8387	-0.6406	-0.0310
										CHANNELS 3 Zrotation Yrotation Xrotation
										JOINT mixamorig:LeftHandIndex3
										{
											OFFSET	3.3346	-0.7374	-0.0133
											CHANNELS 3 Zrotation Yrotation Xrotation
											End Site
											{
												OFFSET 2.9714 -0.8030 0.0009
											}
										}
									}
								}
								JOINT mixamorig:LeftHandRing1
								{
									OFFSET	12.1659	-1.6805	-1.2769
									CHANNELS 3 Zrotation Yrotation Xrotation
									JOINT mixamorig:LeftHandRing2
									{
										OFFSET	3.5925	-0.2366	-0.0771
										CHANNELS 3 Zrotation Yrotation Xrotation
										JOINT mixamorig:LeftHandRing3
										{
											OFFSET	3.2906	-0.3266	-0.0615
											CHANNELS 3 Zrotation Yrotation Xrotation
											End Site
											{
												OFFSET 3.5423 -0.9211 -0.0200
											}
										}
									}
								}
								JOINT mixamorig:LeftHandPinky1
								{
									OFFSET	11.0508	-2.1872	-3.8040
									CHANNELS 3 Zrotation Yrotation Xrotation
									JOINT mixamorig:LeftHandPinky2
									{
										OFFSET	4.1236	-0.3047	0.1212
										CHANNELS 3 Zrotation Yrotation Xrotation
										JOINT mixamorig:LeftHandPinky3
										{
											OFFSET	2.5805	-0.2597	0.0823
											CHANNELS 3 Zrotation Yrotation Xrotation
											End Site
											{
												OFFSET 2.9027 -0.3379 0.0963
											}
										}
									}
								}
							}
						}
					}
				}
				JOINT mixamorig:RightShoulder
				{
					OFFSET	-6.1057	9.1105	0.7056
					CHANNELS 3 Zrotation Yrotation Xrotation
					JOINT mixamorig:RightArm
					{
						OFFSET	-12.6532	-0.3429	-2.6009
						CHANNELS 3 Zrotation Yrotation Xrotation
						JOINT mixamorig:RightForeArm
						{
							OFFSET	-27.3518	-0.9642	-1.4034
							CHANNELS 3 Zrotation Yrotation Xrotation
							JOINT mixamorig:RightHand
							{
								OFFSET	-27.5619	-0.7068	1.5501
								CHANNELS 3 Zrotation Yrotation Xrotation
								JOINT mixamorig:RightHandMiddle1
								{
									OFFSET	-12.6630	-1.3960	0.9549
									CHANNELS 3 Zrotation Yrotation Xrotation
									JOINT mixamorig:RightHandMiddle2
									{
										OFFSET	-3.6093	-0.1669	0.0778
										CHANNELS 3 Zrotation Yrotation Xrotation
										JOINT mixamorig:RightHandMiddle3
										{
											OFFSET	-3.4004	-0.6273	0.1148
											CHANNELS 3 Zrotation Yrotation Xrotation
											End Site
											{
												OFFSET -3.6205 -0.6492 0.1199
											}
										}
									}
								}
								JOINT mixamorig:RightHandThumb1
								{
									OFFSET	-3.3269	-2.0474	3.5790
									CHANNELS 3 Zrotation Yrotation Xrotation
									JOINT mixamorig:RightHandThumb2
									{
										OFFSET	-3.4890	-1.4805	2.8548
										CHANNELS 3 Zrotation Yrotation Xrotation
										JOINT mixamorig:RightHandThumb3
										{
											OFFSET	-3.4086	-1.7658	2.1133
											CHANNELS 3 Zrotation Yrotation Xrotation
											End Site
											{
												OFFSET -2.7231 -1.1596 1.7903
											}
										}
									}
								}
								JOINT mixamorig:RightHandIndex1
								{
									OFFSET	-11.9722	-1.1059	3.7324
									CHANNELS 3 Zrotation Yrotation Xrotation
									JOINT mixamorig:RightHandIndex2
									{
										OFFSET	-3.8387	-0.6406	-0.0310
										CHANNELS 3 Zrotation Yrotation Xrotation
										JOINT mixamorig:RightHandIndex3
										{
											OFFSET	-3.3346	-0.7373	-0.0133
											CHANNELS 3 Zrotation Yrotation Xrotation
											End Site
											{
												OFFSET -2.9715 -0.8029 0.0009
											}
										}
									}
								}
								JOINT mixamorig:RightHandRing1
								{
									OFFSET	-12.1659	-1.6803	-1.2769
									CHANNELS 3 Zrotation Yrotation Xrotation
									JOINT mixamorig:RightHandRing2
									{
										OFFSET	-3.5925	-0.2366	-0.0771
										CHANNELS 3 Zrotation Yrotation Xrotation
										JOINT mixamorig:RightHandRing3
										{
											OFFSET	-3.2906	-0.3265	-0.0615
											CHANNELS 3 Zrotation Yrotation Xrotation
											End Site
											{
												OFFSET -3.5423 -0.9210 -0.0200
											}
										}
									}
								}
								JOINT mixamorig:RightHandPinky1
								{
									OFFSET	-11.0508	-2.1870	-3.8040
									CHANNELS 3 Zrotation Yrotation Xrotation
									JOINT mixamorig:RightHandPinky2
									{
										OFFSET	-4.1236	-0.3046	0.1212
										CHANNELS 3 Zrotation Yrotation Xrotation
										JOINT mixamorig:RightHandPinky3
										{
											OFFSET	-2.5805	-0.2597	0.0823
											CHANNELS 3 Zrotation Yrotation Xrotation
											End Site
											{
												OFFSET -2.9027 -0.3379 0.0963
											}
										}
									}
								}
							}
						}
					}
				}
			}
		}
	}
	JOINT mixamorig:RightUpLeg
	{
		OFFSET	-9.1245	-6.6564	-0.0554
		CHANNELS 3 Zrotation Yrotation Xrotation
		JOINT mixamorig:RightLeg
		{
			OFFSET	0.0000	-40.5610	-1.7662
			CHANNELS 3 Zrotation Yrotation Xrotation
			JOINT mixamorig:RightFoot
			{
				OFFSET	0.4978	-41.9625	-3.3512
				CHANNELS 3 Zrotation Yrotation Xrotation
				JOINT mixamorig:RightToeBase
				{
					OFFSET	-0.3734	-10.4922	12.6406
					CHANNELS 3 Zrotation Yrotation Xrotation
					End Site
					{
						OFFSET 0.0000 0.0000 9.9925
					}
				}
			}
		}
	}
	JOINT mixamorig:LeftUpLeg
	{
		OFFSET	9.1245	-6.6564	-0.0554
		CHANNELS 3 Zrotation Yrotation Xrotation
		JOINT mixamorig:LeftLeg
		{
			OFFSET	-0.0000	-40.5610	-1.7662
			CHANNELS 3 Zrotation Yrotation Xrotation
			JOINT mixamorig:LeftFoot
			{
				OFFSET	-0.4978	-41.9625	-3.3512
				CHANNELS 3 Zrotation Yrotation Xrotation
				JOINT mixamorig:LeftToeBase
				{
					OFFSET	0.3734	-10.4922	12.6406
					CHANNELS 3 Zrotation Yrotation Xrotation
					End Site
					{
						OFFSET -0.0000 0.0000 9.9925
					}
				}
			}
		}
	}
}
MOTION
Frames: 8
Frame Time: 0.0333333
1.7165 93.3674 1.2357 0.2042 -32.4843 -1.6315 1.7650 16.0186 5.4518 0.9035 0.8485 4.3671 0.9143 0.8686 4.3611 -2.6022 1.4178 0.8931 -8.8658 5.0472 0.1460 0.0000 -0.0000 0.0000 0.0000 -0.0000 0.0000 0.0000 -0.0000 0.0000 -9.0876 -12.3375 5.9721 -46.8427 -39.6242 -21.1494 175.0660 -59.5559 -177.4746 14.6129 4.7700 34.7090 -87.9379 -1.4381 6.2904 -85.4751 -0.9444 3.3322 -53.3011 -1.3441 2.1550 -7.8475 14.3112 12.1053 -4.6952 9.7951 0.3502 -0.9120 59.3868 9.8518 -80.5639 -3.9939 5.4600 -90.3154 -2.5748 1.1662 -51.1683 -1.6139 0.2455 -85.7327 -4.0939 5.9368 -92.0284 -3.4324 0.8199 -45.2848 -1.4910 -0.2141 -88.2660 0.7074 6.4421 -91.5608 -0.9055 8.0115 -50.6688 -1.2054 2.0965 4.7074 18.7625 2.9135 52.9790 47.4382 4.5159 -174.3350 66.1104 -176.6539 -32.6834 -4.8807 6.4904 94.4028 1.0197 6.5027 82.1258 0.9166 3.1348 54.7243 1.4050 2.8422 18.3403 -21.7004 2.1584 -3.4748 -3.9594 1.9283 -40.6826 -38.5226 55.1989 87.0340 3.4967 5.7440 86.9632 2.4464 1.0045 52.5823 1.5954 0.2599 91.4416 3.6357 6.1428 89.5779 3.3016 0.6673 47.2000 1.5949 0.1220 92.0323 0.8562 6.4018 88.4080 0.7260 3.7394 54.3341 1.1583 2.2558 -6.9903 -9.6220 -21.8673 -2.2042 -3.9964 42.6360 6.8884 0.7132 -17.3831 0.0000 0.0000 -0.0000 7.9912 16.8978 -22.9459 -3.1490 -10.3663 39.2219 -8.6970 -2.8345 -13.5282 -0.0000 -0.0000 -0.0852 
0.8582 92.7623 0.5840 -0.0901 -29.3742 -2.7102 2.5072 15.8067 5.8279 1.2780 0.6798 4.6419 1.2886 0.7114 4.6347 -2.8154 1.3471 0.9659 -8.5324 4.3652 0.6801 0.0000 -0.0000 0.0000 0.0000 -0.0000 0.0000 0.0000 -0.0000 0.0000 -9.9023 -12.0185 6.0142 -49.2316 -39.0685 -18.2411 175.0259 -60.0114 -177.4282 15.4384 3.0600 34.5610 -87.9380 -1.4381 6.2904 -85.4751 -0.9444 3.3322 -53.3012 -1.3441 2.1550 -7.8475 14.3112 12.1053 -4.6953 9.7950 0.3502 -0.9120 59.3868 9.8518 -80.5640 -3.9939 5.4600 -90.3154 -2.5748 1.1662 -51.1683 -1.6139 0.2455 -85.7327 -4.0939 5.9368 -92.0284 -3.4324 0.8199 -45.2848 -1.4910 -0.2141 -88.2660 0.7074 6.4421 -91.5608 -0.9055 8.0115 -50.6688 -1.2055 2.0965 3.7746 18.3789 2.5538 53.0361 46.6947 4.7685 -174.3510 65.9990 -176.6714 -33.0330 -4.0748 6.8213 94.4028 1.0196 6.5027 82.1258 0.9166 3.1349 54.7243 1.4050 2.8422 18.3403 -21.7004 2.1584 -3.4748 -3.9594 1.9283 -40.6826 -38.5226 55.1989 87.0340 3.4967 5.7441 86.9632 2.4464 1.0046 52.5823 1.5954 0.2599 91.4416 3.6356 6.1427 89.5779 3.3016 0.6674 47.2000 1.5949 0.1219 92.0323 0.8562 6.4018 88.4079 0.7259 3.7394 54.3342 1.1583 2.2558 -8.1103 -11.4761 -19.4104 -1.3968 -5.1569 44.3794 6.7552 0.8030 -19.7558 0.0000 -0.0000 -0.0000 8.6225 16.5237 -24.3510 -3.6589 -10.1775 44.2056 -7.7690 -5.9836 -12.5146 -0.0000 -0.0000 -6.1063 
0.0144 92.5468 -0.0489 0.0260 -27.1351 -3.5150 3.1123 15.7711 6.0422 1.5797 0.6827 4.8089 1.5916 0.7215 4.7997 -3.1020 1.3152 1.2343 -8.1351 3.8101 1.4579 0.0000 -0.0000 0.0000 0.0000 -0.0000 0.0000 0.0000 -0.0000 0.0000 -10.7296 -11.1310 5.8256 -52.3674 -38.0223 -14.0310 174.9806 -60.5079 -177.3761 16.3685 1.2010 34.4474 -87.9380 -1.4381 6.2905 -85.4751 -0.9444 3.3322 -53.3012 -1.3441 2.1550 -7.8475 14.3112 12.1053 -4.6953 9.7950 0.3502 -0.9120 59.3868 9.8518 -80.5640 -3.9939 5.4600 -90.3154 -2.5748 1.1662 -51.1683 -1.6139 0.2455 -85.7327 -4.0939 5.9368 -92.0284 -3.4323 0.8199 -45.2848 -1.4911 -0.2141 -88.2660 0.7074 6.4421 -91.5608 -0.9055 8.0115 -50.6688 -1.2054 2.0965 3.6105 18.2731 2.4838 52.9771 45.4501 5.3394 -174.3777 65.8100 -176.7006 -33.4381 -3.4540 7.2534 94.4028 1.0196 6.5027 82.1258 0.9166 3.1349 54.7243 1.4050 2.8422 18.3402 -21.7004 2.1584 -3.4748 -3.9594 1.9283 -40.6826 -38.5226 55.1989 87.0340 3.4967 5.7440 86.9632 2.4464 1.0046 52.5823 1.5954 0.2599 91.4416 3.6356 6.1427 89.5779 3.3016 0.6674 47.2000 1.5949 0.1220 92.0323 0.8562 6.4018 88.4080 0.7260 3.7394 54.3341 1.1583 2.2558 -9.2219 -12.7692 -16.9959 -1.3015 -6.4208 44.7999 7.0012 0.9326 -21.2262 -0.0000 0.0000 0.0000 8.8775 16.2434 -27.0539 -4.6457 -9.6260 49.7018 -6.5231 -8.4519 -7.0313 0.0161 0.0025 -10.8246 
-0.7956 92.6002 -0.6898 0.5832 -26.4000 -4.2389 3.4284 16.0019 6.0720 1.7051 0.9424 4.8503 1.7201 0.9836 4.8375 -3.3699 1.2992 1.6214 -7.6388 3.3157 2.3684 0.0000 -0.0000 0.0000 0.0000 -0.0000 0.0000 0.0000 -0.0000 0.0000 -11.3828 -9.7749 5.4050 -55.4578 -36.4141 -9.2662 174.9160 -61.1870 -177.3022 16.9882 -0.2858 34.4741 -87.9380 -1.4382 6.2904 -85.4751 -0.9444 3.3322 -53.3012 -1.3441 2.1550 -7.8475 14.3112 12.1053 -4.6953 9.7950 0.3502 -0.9120 59.3868 9.8518 -80.5640 -3.9939 5.4600 -90.3154 -2.5748 1.1662 -51.1683 -1.6139 0.2455 -85.7327 -4.0939 5.9368 -92.0284 -3.4324 0.8199 -45.2848 -1.4910 -0.2141 -88.2660 0.7074 6.4421 -91.5608 -0.9055 8.0115 -50.6688 -1.2054 2.0965 4.1588 18.5173 2.6866 52.9803 43.8626 6.1057 -174.4111 65.5692 -176.7373 -33.7197 -3.2509 7.6462 94.4028 1.0196 6.5027 82.1258 0.9166 3.1349 54.7243 1.4051 2.8422 18.3403 -21.7004 2.1584 -3.4748 -3.9594 1.9283 -40.6826 -38.5226 55.1989 87.0340 3.4967 5.7440 86.9632 2.4464 1.0046 52.5823 1.5954 0.2599 91.4416 3.6357 6.1427 89.5780 3.3016 0.6674 47.2000 1.5949 0.1220 92.0323 0.8562 6.4018 88.4080 0.7260 3.7394 54.3341 1.1583 2.2558 -9.8045 -13.0197 -15.1418 -1.8771 -6.5650 44.4957 7.5875 1.0685 -22.1033 0.0000 -0.0000 0.0000 9.3245 16.2749 -29.6098 -5.9316 -8.9645 54.4466 -8.7096 -9.7655 0.1272 2.7027 0.4436 -16.3041 
-1.5273 92.5707 -1.2435 1.1208 -26.1284 -4.9939 3.5636 16.3961 5.9894 1.7023 1.3661 4.8192 1.7210 1.4081 4.8013 -3.5548 1.2645 1.9743 -7.1204 2.7691 3.2337 0.0000 -0.0000 0.0000 0.0000 -0.0000 0.0000 0.0000 -0.0000 0.0000 -11.6994 -8.3690 4.8930 -57.7081 -34.5896 -5.0915 174.8361 -61.9834 -177.2116 16.6839 -0.9160 34.6422 -87.9380 -1.4382 6.2904 -85.4751 -0.9444 3.3322 -53.3012 -1.3441 2.1550 -7.8475 14.3112 12.1053 -4.6953 9.7950 0.3502 -0.9120 59.3868 9.8519 -80.5640 -3.9939 5.4600 -90.3154 -2.5748 1.1662 -51.1683 -1.6139 0.2455 -85.7327 -4.0939 5.9368 -92.0284 -3.4323 0.8199 -45.2848 -1.4910 -0.2141 -88.2660 0.7074 6.4421 -91.5608 -0.9055 8.0115 -50.6688 -1.2054 2.0965 4.8970 18.9283 2.9712 53.2258 42.3440 6.8526 -174.4413 65.3479 -176.7704 -33.6603 -3.4348 7.8865 94.4028 1.0196 6.5027 82.1258 0.9166 3.1348 54.7243 1.4051 2.8422 18.3402 -21.7004 2.1584 -3.4748 -3.9594 1.9283 -40.6826 -38.5226 55.1989 87.0340 3.4967 5.7441 86.9632 2.4464 1.0046 52.5824 1.5954 0.2599 91.4416 3.6356 6.1428 89.5780 3.3016 0.6674 47.2000 1.5949 0.1219 92.0323 0.8562 6.4018 88.4079 0.7260 3.7394 54.3342 1.1583 2.2558 -11.0970 -13.9845 -13.1615 -0.7912 -6.2175 44.1529 7.3786 1.1019 -23.0329 -0.0000 0.0000 -0.0000 9.7240 16.0607 -32.0503 -6.6967 -8.3282 59.4183 -10.0752 -11.2616 4.8911 4.5221 0.6766 -15.8710 
-2.0845 92.6372 -1.6545 1.6906 -25.5070 -5.5405 3.6141 16.7976 5.8536 1.6884 1.7939 4.7546 1.7098 1.8381 4.7308 -3.6713 1.2011 2.2129 -6.6542 2.1305 3.9393 0.0000 -0.0000 0.0000 0.0000 -0.0000 0.0000 0.0000 -0.0000 0.0000 -11.6599 -7.2493 4.4296 -59.0054 -32.9912 -2.0500 174.7551 -62.7445 -177.1202 15.2707 -0.6379 34.8844 -87.9380 -1.4381 6.2904 -85.4751 -0.9444 3.3322 -53.3011 -1.3441 2.1550 -7.8475 14.3112 12.1053 -4.6953 9.7950 0.3503 -0.9120 59.3868 9.8518 -80.5639 -3.9939 5.4600 -90.3154 -2.5748 1.1662 -51.1683 -1.6139 0.2455 -85.7327 -4.0939 5.9368 -92.0284 -3.4324 0.8199 -45.2848 -1.4910 -0.2141 -88.2660 0.7074 6.4421 -91.5608 -0.9055 8.0115 -50.6688 -1.2054 2.0965 5.3973 19.2853 3.1771 53.6770 41.1725 7.4239 -174.4636 65.1810 -176.7950 -33.1774 -3.7531 7.9424 94.4028 1.0196 6.5027 82.1258 0.9166 3.1349 54.7243 1.4050 2.8421 18.3402 -21.7004 2.1584 -3.4748 -3.9594 1.9283 -40.6826 -38.5226 55.1989 87.0340 3.4967 5.7441 86.9632 2.4464 1.0046 52.5823 1.5954 0.2599 91.4416 3.6357 6.1428 89.5780 3.3016 0.6673 47.2000 1.5949 0.1220 92.0323 0.8562 6.4018 88.4080 0.7260 3.7394 54.3341 1.1583 2.2558 -12.3397 -14.6619 -11.1143 -0.4104 -6.1903 43.3715 7.7214 1.1942 -23.6648 0.0000 0.0000 0.0000 9.7229 15.3460 -33.8767 -7.0807 -8.0388 62.4565 -10.4170 -12.3282 7.1584 5.1994 0.4276 -12.3150 
-2.4320 92.8706 -2.0121 2.2836 -24.8403 -5.6939 3.6106 17.0785 5.6571 1.7468 2.0817 4.6374 1.7683 2.1299 4.6084 -3.7766 1.1380 2.3493 -6.3272 1.5332 4.4296 0.0000 -0.0000 0.0000 0.0000 -0.0000 0.0000 0.0000 -0.0000 0.0000 -11.3074 -6.6242 4.1200 -59.5242 -32.0348 -0.4469 174.7030 -63.2111 -177.0618 13.1921 0.3300 35.1507 -87.9379 -1.4381 6.2904 -85.4751 -0.9444 3.3322 -53.3012 -1.3441 2.1550 -7.8475 14.3111 12.1053 -4.6953 9.7950 0.3502 -0.9120 59.3868 9.8518 -80.5639 -3.9939 5.4600 -90.3155 -2.5748 1.1662 -51.1683 -1.6139 0.2455 -85.7327 -4.0939 5.9368 -92.0284 -3.4323 0.8199 -45.2848 -1.4910 -0.2141 -88.2660 0.7074 6.4421 -91.5608 -0.9055 8.0115 -50.6688 -1.2054 2.0965 5.7034 19.5354 3.3205 53.8130 40.5919 7.5890 -174.4816 65.0452 -176.8148 -32.5105 -4.0258 7.9027 94.4028 1.0196 6.5027 82.1258 0.9166 3.1349 54.7243 1.4050 2.8422 18.3402 -21.7004 2.1584 -3.4748 -3.9594 1.9283 -40.6826 -38.5226 55.1988 87.0340 3.4967 5.7440 86.9632 2.4464 1.0046 52.5824 1.5954 0.2599 91.4416 3.6357 6.1427 89.5780 3.3016 0.6673 47.2000 1.5949 0.1220 92.0323 0.8562 6.4018 88.4079 0.7260 3.7394 54.3341 1.1583 2.2558 -12.9765 -14.5237 -9.4350 -1.3315 -6.4743 42.0324 8.8351 1.3904 -23.8006 -0.0000 0.0000 -0.0000 9.2686 15.0224 -34.7763 -7.0186 -8.0868 61.9439 -9.9913 -11.1087 5.1744 3.7588 0.0644 -5.4349 
-2.6802 93.0924 -2.3800 2.8186 -24.0971 -5.6506 3.5679 17.1951 5.4654 1.8446 2.1829 4.5089 1.8647 2.2342 4.4773 -3.9231 1.1136 2.4676 -6.1277 1.1361 4.7319 0.0000 -0.0000 0.0000 0.0000 -0.0000 0.0000 0.0000 -0.0000 0.0000 -10.9134 -6.5603 4.0370 -59.3812 -31.9149 -0.5017 174.7334 -62.9404 -177.0959 11.9249 1.5474 35.5000 -87.9380 -1.4382 6.2904 -85.4751 -0.9444 3.3322 -53.3011 -1.3441 2.1550 -7.8475 14.3112 12.1053 -4.6953 9.7951 0.3503 -0.9120 59.3868 9.8518 -80.5640 -3.9939 5.4600 -90.3154 -2.5748 1.1662 -51.1683 -1.6139 0.2455 -85.7327 -4.0939 5.9368 -92.0284 -3.4324 0.8199 -45.2848 -1.4910 -0.2141 -88.2660 0.7074 6.4421 -91.5608 -0.9055 8.0115 -50.6688 -1.2054 2.0965 5.9620 19.7480 3.4485 53.4788 40.7297 7.2840 -174.4952 64.9412 -176.8298 -32.0818 -4.4241 7.9195 94.4028 1.0196 6.5027 82.1258 0.9166 3.1349 54.7243 1.4050 2.8422 18.3403 -21.7004 2.1584 -3.4748 -3.9594 1.9283 -40.6826 -38.5226 55.1989 87.0340 3.4967 5.7440 86.9632 2.4464 1.0046 52.5823 1.5954 0.2599 91.4416 3.6357 6.1427 89.5779 3.3016 0.6673 47.2000 1.5949 0.1219 92.0323 0.8562 6.4018 88.4079 0.7260 3.7394 54.3341 1.1583 2.2558 -13.7623 -14.5776 -7.8137 -1.8743 -6.8982 40.5345 9.7776 1.5585 -23.7954 -0.0000 0.0000 -0.0001 8.5987 15.2105 -34.8324 -6.3827 -8.6406 57.3426 -8.9884 -9.2450 2.6189 0.0000 -0.0000 -0.6717 
